<?xml version="1.0" encoding="UTF-8" standalone="no"?>
<!DOCTYPE svg PUBLIC "-//W3C//DTD SVG 1.1//EN" "http://www.w3.org/Graphics/SVG/1.1/DTD/svg11.dtd">
<svg width="100%" height="100%" viewBox="0 0 64 64" version="1.1" xmlns="http://www.w3.org/2000/svg" xmlns:xlink="http://www.w3.org/1999/xlink" xml:space="preserve" xmlns:serif="http://www.serif.com/" style="fill-rule:evenodd;clip-rule:evenodd;stroke-linejoin:round;stroke-miterlimit:2;">
    <path d="M56.051,4.325C65.203,12.693 61.687,31.849 48.203,47.075C34.72,62.301 16.343,67.869 7.191,59.501C-1.961,51.133 1.555,31.977 15.038,16.751C28.522,1.525 46.899,-4.043 56.051,4.325Z" style="fill:rgb(227,227,227);"/>
    <path d="M56.278,4.076C52.547,0.665 47.315,-0.489 41.495,0.365C32.868,1.633 22.937,7.324 14.786,16.527C6.638,25.729 2.112,36.36 1.78,45.21C1.555,51.177 3.234,56.34 6.963,59.749C10.695,63.161 15.927,64.315 21.746,63.46C30.374,62.193 40.305,56.502 48.455,47.298C56.604,38.096 61.129,27.465 61.462,18.616C61.686,12.649 60.007,7.486 56.278,4.077L56.278,4.076ZM55.824,4.574C59.416,7.858 61.005,12.842 60.789,18.59C60.461,27.313 55.982,37.782 47.951,46.852C39.921,55.919 30.149,61.546 21.649,62.794C16.049,63.616 11.008,62.535 7.418,59.252C3.825,55.967 2.237,50.984 2.453,45.235C2.781,36.513 7.259,26.043 15.291,16.974C23.32,7.906 33.093,2.28 41.593,1.032C47.192,0.21 52.234,1.291 55.824,4.573L55.824,4.574Z" style="fill:rgb(162,162,162);"/>
    <circle cx="16.5" cy="50.5" r="6.5" style="fill:rgb(64,191,191);"/>
    <circle cx="18.5" cy="32.5" r="6.5" style="fill:rgb(64,191,191);"/>
    <circle cx="50.5" cy="19.5" r="6.5" style="fill:rgb(64,191,191);"/>
    <circle cx="31.5" cy="16.5" r="6.5" style="fill:rgb(64,191,191);"/>
    <circle cx="38.5" cy="37.5" r="6.5" style="fill:rgb(64,191,191);"/>
</svg>
